<svg width="175" height="65" viewBox="0 0 175 65" fill="none" xmlns="http://www.w3.org/2000/svg">
    <path
        d="M58.1802 21.8554C58.1802 28.9471 62.7535 33.8329 69.2195 33.8329C75.6854 33.8329 80.337 28.9471 80.337 21.8554C80.337 14.7637 75.6847 9.87829 69.2195 9.87829C62.7542 9.87829 58.1802 14.7636 58.1802 21.8554ZM71.1907 43.6037C65.5133 43.6037 60.624 41.3191 58.6531 37.9304H58.4158C58.5551 39.1069 58.6087 40.2921 58.5748 41.4763V53.1796C58.5747 54.0384 58.3171 54.8775 57.8352 55.5886C57.3532 56.2998 56.6691 56.8502 55.8711 57.169L47.6138 60.4671V1.52563H57.7856V3.41717C57.7941 4.57474 57.741 5.73191 57.6275 6.88394H57.8647C60.4663 2.86509 65.5127 0.264679 71.6636 0.264679C83.0966 0.264679 91.3762 9.16893 91.3762 21.9349C91.3762 34.7008 82.7819 43.6037 71.1907 43.6037Z"
        fill="white" />
    <path
        d="M106.124 18.3881H125.68C124.891 13.2665 121.343 9.87833 116.218 9.87833C110.856 9.87833 107.228 13.1088 106.124 18.3881ZM116.611 43.6035C103.68 43.6035 94.6918 34.463 94.6918 21.9348C94.6918 9.24792 103.759 0.264526 116.454 0.264526C128.439 0.264526 136.482 9.32654 136.482 21.9348C136.498 23.0981 136.392 24.2598 136.167 25.4011H106.125C107.308 30.7594 111.013 33.8328 116.69 33.8328C121.263 33.8328 124.261 32.4143 126.941 29.0267L133.329 35.7241C129.15 41.1616 123.551 43.6035 116.611 43.6035Z"
        fill="white" />
    <path
        d="M157.574 0.265481C167.667 0.265481 175 6.72707 175 16.4982V42.3439H163.961V16.1829C163.952 14.5061 163.28 12.901 162.09 11.7183C160.901 10.5357 159.291 9.8718 157.613 9.8718C155.935 9.8718 154.326 10.5357 153.136 11.7183C151.947 12.901 151.274 14.5061 151.266 16.1829V42.3439H140.227V16.1037C140.227 6.64792 147.481 0.265381 157.574 0.265381"
        fill="white" />
    <path
        d="M21.9036 10.8997C24.8302 10.9038 27.6362 12.0675 29.7056 14.1355C31.775 16.2035 32.9387 19.0071 32.9428 21.9317H43.8079C43.8135 19.0536 43.2513 16.2027 42.153 13.542C41.0547 10.8814 39.4415 8.4633 37.4069 6.4262C35.3724 4.38909 32.9561 2.77302 30.2958 1.67033C27.6356 0.567637 24.7836 0 21.9036 0C19.0236 0 16.1724 0.567637 13.5121 1.67033C10.8519 2.77302 8.43478 4.38909 6.40026 6.4262C4.36574 8.4633 2.75329 10.8814 1.65501 13.542C0.556724 16.2027 -0.00552435 19.0536 4.09135e-05 21.9317H10.8644C10.8685 19.0071 12.033 16.2035 14.1024 14.1355C16.1718 12.0675 18.977 10.9038 21.9036 10.8997Z"
        fill="white" />
    <path
        d="M21.9035 32.964C20.1082 32.9631 18.3403 32.5249 16.7525 31.6874C15.1648 30.8498 13.8052 29.6381 12.7916 28.1573L3.82031 34.286C5.82757 37.2207 8.52001 39.6224 11.6646 41.2838C14.8093 42.9452 18.3114 43.8162 21.8684 43.8214C25.4254 43.8266 28.9299 42.9658 32.0794 41.3136C35.2288 39.6613 37.9286 37.2673 39.9444 34.3385L30.9987 28.1833C29.9845 29.6576 28.6262 30.8632 27.0418 31.6961C25.4574 32.529 23.6938 32.9641 21.9035 32.964Z"
        fill="#2DC28D" />
    <path
        d="M174.627 53.6862H172.486C172.355 52.6126 171.622 52.0759 170.287 52.0759C169.711 52.0759 169.266 52.1806 168.952 52.3901C168.637 52.5996 168.48 52.8876 168.48 53.2541C168.48 53.372 168.487 53.4767 168.5 53.5683C168.526 53.66 168.565 53.7451 168.618 53.8236C168.683 53.8891 168.736 53.948 168.775 54.0004C168.827 54.0527 168.912 54.1051 169.03 54.1575C169.148 54.2098 169.24 54.2557 169.305 54.2949C169.384 54.3211 169.508 54.3604 169.678 54.4128C169.848 54.452 169.979 54.4848 170.071 54.511C170.176 54.5371 170.339 54.5764 170.562 54.6288C170.784 54.6681 170.955 54.7008 171.072 54.727C171.583 54.8448 171.95 54.9364 172.172 55.0019C172.408 55.0543 172.742 55.1721 173.174 55.3554C173.619 55.5256 173.946 55.7089 174.156 55.9052C174.365 56.0885 174.555 56.3504 174.725 56.6907C174.908 57.018 175 57.3977 175 57.8297C175 58.8509 174.601 59.6626 173.802 60.2648C173.004 60.867 171.93 61.1681 170.582 61.1681C169.141 61.1681 168.035 60.867 167.263 60.2648C166.49 59.6626 166.078 58.7854 166.026 57.6334H168.166C168.284 58.9033 169.102 59.5382 170.621 59.5382C171.275 59.5382 171.799 59.4073 172.192 59.1455C172.598 58.8705 172.801 58.5105 172.801 58.0654C172.801 57.8428 172.748 57.653 172.643 57.4959C172.552 57.3388 172.395 57.2079 172.172 57.1031C171.95 56.9853 171.734 56.9002 171.524 56.8478C171.328 56.7824 171.059 56.7104 170.719 56.6318C170.575 56.5926 170.464 56.5664 170.385 56.5533C168.945 56.1998 168.029 55.9249 167.636 55.7285C166.706 55.2834 166.242 54.5437 166.242 53.5094C166.242 52.5537 166.608 51.8075 167.341 51.2707C168.074 50.7209 169.089 50.446 170.385 50.446C171.629 50.446 172.643 50.7143 173.429 51.2511C174.228 51.7879 174.627 52.5996 174.627 53.6862Z"
        fill="white" />
    <path
        d="M164.383 57.7119C164.134 58.8116 163.591 59.6691 162.753 60.2844C161.928 60.8998 160.939 61.2074 159.787 61.2074C158.256 61.2074 157.038 60.7165 156.135 59.7346C155.244 58.7396 154.799 57.4697 154.799 55.9249C154.799 54.3408 155.258 53.0316 156.174 51.9973C157.104 50.9631 158.282 50.446 159.709 50.446C161.188 50.446 162.36 50.9565 163.224 51.9777C164.088 52.9858 164.52 54.367 164.52 56.1213V56.3569H157.038C157.064 57.3781 157.32 58.1701 157.804 58.7331C158.288 59.2829 158.963 59.5579 159.827 59.5579C160.442 59.5579 160.939 59.4138 161.319 59.1258C161.712 58.8247 162.02 58.3534 162.242 57.7119H164.383ZM162.281 54.8644C162.216 54.0135 161.948 53.3458 161.476 52.8614C161.018 52.3639 160.422 52.1152 159.689 52.1152C158.956 52.1152 158.36 52.3508 157.902 52.8221C157.457 53.2934 157.182 53.9742 157.077 54.8644H162.281Z"
        fill="white" />
    <path
        d="M145.801 50.7405V52.233C146.613 51.0547 147.732 50.4656 149.159 50.4656C150.311 50.4656 151.169 50.7798 151.732 51.4082C152.308 52.0366 152.596 52.9399 152.596 54.1182V60.8736H150.357V54.9823C150.357 54.5764 150.337 54.2426 150.298 53.9807C150.259 53.7058 150.174 53.4309 150.043 53.1559C149.925 52.881 149.729 52.6781 149.454 52.5472C149.179 52.4032 148.825 52.3312 148.393 52.3312C146.744 52.3312 145.919 53.3589 145.919 55.4143V60.8736H143.68V50.7405H145.801Z"
        fill="white" />
    <path
        d="M141.363 50.7405V52.3115L135.629 59.0669H141.657V60.8736H132.722V59.1651L138.378 52.5079H133.115V50.7405H141.363Z"
        fill="white" />
    <path
        d="M130.656 46.8326V49.032H128.417V46.8326H130.656ZM130.656 50.7405V60.8736H128.417V50.7405H130.656Z"
        fill="white" />
    <path
        d="M118 47.5C118.195 47.6953 118.219 48 118.219 48.054C118.219 49.054 118.219 52.0563 118.219 52.0563C118.965 51.0089 120.072 50.4852 121.538 50.4852C122.886 50.4852 123.966 50.9631 124.778 51.9188C125.603 52.8745 126.015 54.1444 126.015 55.7285C126.015 57.365 125.596 58.6807 124.758 59.6757C123.921 60.6576 122.808 61.1485 121.42 61.1485C119.888 61.1485 118.782 60.5987 118.101 59.499V60.8736H116V46.7148C116 46.7148 117.491 46.9914 118 47.5ZM120.968 52.2723C120.091 52.2592 119.397 52.5734 118.887 53.2149C118.389 53.8433 118.141 54.7139 118.141 55.8267C118.141 56.9133 118.389 57.7708 118.887 58.3992C119.397 59.0276 120.091 59.3419 120.968 59.3419C121.806 59.3419 122.48 59.0211 122.991 58.3796C123.502 57.725 123.757 56.8544 123.757 55.7678C123.757 54.6943 123.502 53.8433 122.991 53.2149C122.494 52.5865 121.819 52.2723 120.968 52.2723Z"
        fill="white" />
</svg>
    